# xmcd
#
# Track frame offsets:
#	150
#	5004
#	25463
#	41730
#	59478
#	78218
#	92034
#	111604
#	139978
#	160302
#	181711
#	205330
#	214690
#
# Disc length: 3030 seconds
#
# Revision: 1
# Processed by: cddbd v1.5.1PL0 Copyright (c) Steve Scherf et al.
# Submitted via: CDex 1.50Beta5
#
DISCID=b90bd40d
DTITLE=さまざまなアーティスト - シネマサウンドトラック-間-
DYEAR=1900
DGENRE=
TTITLE0=Sora/Pause
TTITLE1=Dois Mapas/今でも日本人
TTITLE2=Anonymass/何もないのに
TTITLE3=naomi and goro/Home Sweet Home(primavera ver.)
TTITLE4=Kazumasa Hashimoto/Echoomoo
TTITLE5=humbert humbert/ひなぎく(studio live virsion)
TTITLE6=ポリプ/ヒバリ
TTITLE7=Saigenji/La Puerta
TTITLE8=Dois Mapas/赤い月
TTITLE9=Akira Mizumoto/In Dream(mo' mellow mix)
TTITLE10=one tone/祈り
TTITLE11=upses/太陽の下で
TTITLE12=Sora/Fold Air
EXTD=
EXTT0=
EXTT1=
EXTT2=
EXTT3=
EXTT4=
EXTT5=
EXTT6=
EXTT7=
EXTT8=
EXTT9=
EXTT10=
EXTT11=
EXTT12=
PLAYORDER=
